<?xml version="1.0" standalone="no"?>
<!DOCTYPE svg PUBLIC "-//W3C//DTD SVG 20010904//EN"
 "http://www.w3.org/TR/2001/REC-SVG-20010904/DTD/svg10.dtd">
<svg version="1.0" xmlns="http://www.w3.org/2000/svg"
 width="700.000000pt" height="700.000000pt" viewBox="0 0 700.000000 700.000000"
 preserveAspectRatio="xMidYMid meet">
<metadata>
Created by potrace 1.11, written by Peter Selinger 2001-2013
</metadata>
<g transform="translate(0.000000,700.000000) scale(0.100000,-0.100000)"
fill="#000000" stroke="none">
<path d="M3245 6994 c-16 -2 -79 -9 -140 -15 -386 -38 -795 -159 -1166 -344
-352 -176 -641 -385 -924 -669 -485 -488 -815 -1105 -949 -1776 -52 -259 -60
-354 -61 -685 0 -315 4 -374 46 -615 148 -857 636 -1654 1336 -2182 618 -466
1341 -708 2113 -708 395 0 767 61 1132 186 1026 351 1831 1157 2183 2184 76
223 129 456 167 730 17 128 17 672 0 800 -90 660 -306 1199 -677 1695 -573
766 -1412 1256 -2365 1381 -118 15 -619 28 -695 18z m612 -1440 c17 -5 1 -17
-83 -60 -301 -154 -562 -387 -748 -668 -120 -180 -218 -418 -268 -646 -19 -91
-22 -135 -23 -330 0 -196 3 -239 23 -332 75 -357 273 -695 541 -923 534 -454
1301 -556 1975 -264 49 22 91 39 94 39 7 0 -67 -90 -127 -154 -361 -385 -794
-621 -1311 -713 -125 -22 -175 -26 -365 -27 -230 -1 -289 5 -494 50 -503 111
-939 405 -1216 819 -394 589 -429 1338 -94 1991 320 623 939 1069 1649 1189
155 26 398 42 447 29z"/>
</g>
</svg>
